<?xml version="1.0" encoding="UTF-8" standalone="no"?>
<!DOCTYPE svg PUBLIC "-//W3C//DTD SVG 1.1//EN" "http://www.w3.org/Graphics/SVG/1.1/DTD/svg11.dtd">
<svg width="100%" height="100%" viewBox="0 0 500 500" version="1.1" xmlns="http://www.w3.org/2000/svg" xmlns:xlink="http://www.w3.org/1999/xlink" xml:space="preserve" xmlns:serif="http://www.serif.com/" style="fill-rule:evenodd;clip-rule:evenodd;stroke-linejoin:round;stroke-miterlimit:2;">
    <g transform="matrix(0.653418,0,0,0.653418,-83.1971,-86.4243)">
        <path d="M244.899,606.622L247.289,604.885L251.013,601.556L250.374,594.954L249.283,589.166L248.152,577.126L248.152,572.32L249.535,567.726L251.013,563.497L244.068,567.639L243.449,570.706L243.2,573.284L242.868,572.838C242.741,572.45 242.605,572.016 242.459,571.534C241.198,567.369 240.927,568.312 240.954,570.15L239.693,568.995L239.582,570.447L239.502,571.334L240.297,572.969L240.083,574.029L240.427,576.179L239.228,576.472L238.107,577.887L237.946,578.352L237.603,578.218L236.677,573.973L236.477,572.179L235.125,571.485L235.138,572.917L235.702,574.448L233.536,574.081L233.062,575.685L232.747,577.898L232.698,577.911C232.355,576.308 232.217,576.907 232.164,578.048L231.692,578.169L230.534,578.607L229.944,574.47L228.341,576.835L224.824,580.173L223.069,577.025L223.271,581.321L222.176,579.654L221.34,578.132L220.672,580.317L220.232,581.441L219.195,579.76L217.143,581.937L216.124,581.847L214.954,579.448L212.11,583.621L211.109,582.015L209.688,583.044L209.126,584.339L207.081,583.704L204.429,582.061L203.737,584.694L203.02,586.771L202.637,587.796L202.2,589.471L201.457,589.936L199.521,588.913L198.282,589.525L196.658,587.959L194.382,589.751L192.67,590.172L189.796,587.708L188.546,589.76L187.748,590.905L186.397,589.454L185.356,588.929L184.118,590.849L182.476,592.157L181.862,591.528L180.428,591.103L179.201,591.507L178.153,591.722L172.655,588.333L171.856,591.166L168.366,591.844L166.588,593.277L164.295,593.144L163.451,592.544C163.352,567.881 165.096,543.071 168.662,518.465L170.343,517.541L173.261,517.822L177.181,516.858L184.718,516.239L186.109,515.109L190.484,512.653L198.933,512.003L205.975,510.077L212.182,508.903L221.796,503.884L226.625,503.591L233.244,502.053L240.48,500.602L244.273,499.059L245.665,497.925L247.351,498.343L249.175,481.375L249.712,476.251L250.311,470.992L251.013,466.568L250.681,466.857L251.013,462.461L249.259,464.394L245.765,466.835L244.944,463.368L243.622,471.849L242.607,474.194C242.367,471.427 241.116,466.032 240.738,466.179C240.485,466.277 241.427,468.394 241.192,469.736C241.006,470.793 240.177,471.835 240.015,473.827C239.958,474.518 239.586,470.829 239.374,470.809C238.92,470.768 238.786,473.844 238.786,473.844L238.281,477.789L238.255,477.699L237.937,477.602L236.318,469.575L235.517,473.444L235.93,479.675C235.616,479.317 234.852,479.596 234.47,479.035C234.175,478.603 234.253,477.304 234.03,477.102C233.439,476.565 233.183,477.045 232.825,476.376C232.132,475.079 232.159,472.178 231.827,469.979C231.827,469.979 232.035,472.487 231.314,473.538C230.593,474.588 229.772,475.678 229.772,475.678L228.514,478.087L228.034,479.174L226.293,477.374L225.226,475.56L224.202,474.462L222.246,476.977L220.596,478.562L219.542,480.079L216.223,478.673L215.855,479.926L214.512,479.014L213.128,479.653C213.128,479.653 212.868,477.748 211.663,480.136C210.458,482.524 210.02,481.95 209.573,483.362C209.125,484.773 208.65,484.488 208.65,484.488C208.65,484.488 208.061,483.507 206.868,484.594C205.675,485.68 204.375,479.793 201.619,482.596C198.863,485.399 197.472,484.935 197.472,484.935L191.955,484.741L188.804,486.822L185.677,486.25L183.471,485.276L182.049,486.131C182.049,486.131 181.149,483.74 180.497,485.535C179.844,487.329 179.981,486.075 179.511,487.385C179.04,488.695 177.68,489.824 177.68,489.824L174.992,490.258L173.647,490.519L173.461,490.782C181.37,451.67 193.937,413.424 211.081,377.49L213.57,377.877L216.778,377.16L222.823,376.782L229.36,379.258L237.23,381.404L240.607,382.021L244.471,380.753L246.585,379.268L249.215,380.206L254.538,382.847L256.988,384.013L262.81,382.59L265.445,382.735L266.821,382.814L268.772,376.296L271.462,368.779L272.256,364.29L273.882,360.888L274.793,358.111L275.888,353.83L273.823,355.429L269.957,357.224L269.753,353.666L266.974,361.788L265.566,363.92C265.812,361.154 265.519,355.623 265.122,355.702C264.856,355.755 265.415,358.003 264.949,359.283C264.583,360.292 263.584,361.174 263.078,363.107C262.902,363.777 263.178,360.08 262.972,360.024C262.533,359.904 261.865,362.909 261.865,362.909L260.402,367.602L260.178,358.276L258.715,361.946L258.037,368.154C257.79,367.747 256.989,367.889 256.71,367.27C256.495,366.793 256.799,365.527 256.614,365.289C256.125,364.658 255.79,365.086 255.554,364.365C255.097,362.967 255.63,360.115 255.685,357.891C255.685,357.891 255.453,360.398 254.56,361.307C253.667,362.215 252.669,363.146 252.669,363.146L251.011,365.298L250.348,366.286L248.948,364.21L248.214,362.238L247.397,360.978L245.032,363.114L243.132,364.388L241.829,365.698L238.805,363.735L238.226,364.905L237.062,363.773L235.587,364.161C235.587,364.161 235.663,362.24 234.06,364.382C232.458,366.524 232.127,365.882 231.44,367.194C230.754,368.506 230.336,368.143 230.336,368.143C230.336,368.143 229.927,367.074 228.563,367.936C227.199,368.799 226.944,362.775 223.742,365.055C220.54,367.335 219.25,366.636 219.25,366.636L216.712,366.094C236.782,326.85 262.456,290.634 293.621,259.413L297.47,261.477L300.623,262.833L304.673,262.463L307.065,261.488L309.419,262.991L314.016,266.757L316.142,268.442L322.136,268.357L324.671,269.089L325.994,269.474L329.355,263.558L333.659,256.834L335.438,252.636L337.783,249.684L339.293,247.182L330.85,249.015L323.143,253.21L320.714,253.22C320.565,252.767 319.753,252.727 319.619,252.061C319.517,251.548 320.096,250.382 319.969,250.109C319.634,249.384 319.211,249.726 319.143,248.971C319.01,247.506 316.604,247.137 316.604,247.137L314.506,248.864L313.639,249.678L312.739,247.341L312.465,245.255L311.95,243.844L309.168,245.396L307.769,245.93C389.396,171.968 504.955,130.782 652.678,152.759C652.809,152.774 652.802,152.81 652.684,152.84C322.724,246.746 337.903,539.428 394.997,615.689C397.521,619.007 401.585,620.037 405.648,617.1L467.265,556.549C471.088,552.701 474.617,553.064 477.935,556.472L562.227,636.861C564.123,637.84 569.424,641.913 572.667,637.441L578.59,633.697L580.184,629.437C582.691,621.906 589.869,617.827 591.085,613.003C589.569,610.922 589.459,609.163 590.449,607.655C593.523,606.036 596.141,603.753 598.765,601.479L600.315,597.824L601.914,589.096C603.067,586.915 604.748,588.824 605.739,587.404C607.607,584.727 605.485,581.814 607.022,580.46C608.925,578.784 611.694,577.975 613.63,575.232C614.34,574.164 614.564,570.971 615.261,569.978C615.912,569.051 618.855,571.336 619.498,570.45C619.892,569.907 621.846,567.056 622.238,566.522C622.718,565.868 620.166,566.202 620.644,565.552C620.813,565.322 622.24,564.497 622.409,564.266C623.078,563.354 623.221,563.807 623.891,562.873C624.018,562.698 630.539,560.503 628.129,559.178C626.644,558.361 625.461,557.353 626.461,555.845C626.809,555.319 628.448,555.76 628.8,555.211C629.316,554.405 631.672,553.79 632.326,552.183C632.787,551.051 631.559,548.866 631.932,548.224C632.633,547.019 631.596,547.385 632.315,546.043C632.543,545.617 632.636,544.408 633.002,544.744C633.334,545.049 634.485,544.535 634.644,544.225C635.156,543.226 634.506,541.787 635.03,540.702C635.466,539.797 636.42,538.901 636.866,537.931C637.289,536.713 637.193,535.06 637.638,533.976C637.928,533.272 639.046,532.586 639.346,531.935C639.649,531.278 639.151,531.122 639.468,530.517C639.927,529.638 639.277,529.72 639.767,528.946C640.276,528.143 641.696,527.956 642.243,527.257C643.091,526.173 643.82,526.553 644.777,525.69C645.119,525.383 644.924,524.037 645.282,523.754C645.771,523.368 646.543,520.204 647.064,519.862C648.141,519.155 650.231,520.026 651.459,519.483C653.029,518.788 652.034,516.911 653.538,517.128C653.943,517.186 653.993,519.816 657.89,515.794C658.642,515.018 658.559,515.843 659.458,515.316C659.953,515.025 660.248,513.31 660.734,513.01C661.145,512.756 663.849,513.19 664.257,512.928C664.642,512.682 664.128,512.089 664.512,511.834C665.393,511.249 665.502,509.47 666.408,508.828C667.202,508.266 668.788,508.848 669.625,508.231C670.604,507.507 672.222,505.743 673.292,504.929C674.509,504.004 675.796,505.531 677.178,504.465C679.2,502.906 679.528,501.42 681.371,499.401C682.579,498.076 685.182,498.37 686.317,497.708C686.664,497.506 687.764,496.325 688.174,495.197C688.473,494.376 688.091,493.511 688.331,493.428C689.581,493 691.046,493.466 692.125,493.608C693.318,493.766 694.39,494.203 695.307,494.769C696.293,495.378 697.098,496.136 697.678,496.853L701.385,504.076L703.579,502.301L716.432,530.402L719.39,530.122L728.986,557.849L733.647,566.929C737.372,575.418 738.757,577.743 743.521,579.919C750.235,582.64 755.48,583.988 761.118,590.1L763.187,591.901L764.104,595.134L769.413,608.169C775.068,619.031 787.563,649.636 796.147,671.482L797.541,673.206L798.171,675.647L798.999,677.728C799.363,678.705 799.9,679.473 800.263,680.445C800.339,680.648 800.516,682.093 800.592,682.297C801.812,685.565 803.023,688.804 804.226,692.015C804.933,693.906 806.099,695.945 806.801,697.816C808.04,701.118 808.439,704.07 809.807,707.257C812.185,712.794 814.464,717.543 816.738,723.044C817.164,724.073 816.844,725.056 817.266,726.084C817.838,727.477 819.194,729.685 819.76,731.076C820.182,732.113 820.603,733.149 821.022,734.185C821.389,735.093 821.126,735.739 821.491,736.646C825.491,746.59 829.383,756.503 833.204,766.406C833.799,767.949 833.408,768.937 834,770.48C834.764,772.469 836.477,773.644 837.136,775.674C840.045,784.634 843.159,793.747 846.427,802.961C846.744,803.857 846.311,804.41 846.632,805.308C855.202,829.308 865.526,854.292 875.185,878.616C876.729,881.511 875.876,883.035 872.076,882.873L335.707,882.822L395.788,820.132L403.049,820.132L419.888,802.711L464.662,750.942L475.552,746.558L495.632,720.422L513.48,728.195L514.605,733.239L510.559,736.546L503.216,737.929C501.134,740.508 498.76,742.762 495.632,744.18L492.971,750.471L487.16,756.375L485.19,766.043L482.039,771.333L476.136,775.395L471.558,779.698C471.31,780.757 465.981,784.806 465.425,785.985C464.824,787.26 464.231,793.757 463.238,795.185L469.615,789.618L473.087,787.439L475.934,785.611L479.583,781.382L490.336,775.404L492.674,770.217L497.798,762.131L500.478,757.835L504.023,752.485L513.201,749.607L522.859,744.069L531.942,734.175L527.318,726.393L500.533,702.145L486.273,689.854L475.214,701.567L315.276,879.085C312.873,881.453 310.114,882.827 306.857,882.819L283.623,882.817C283.623,882.817 276.474,883.036 271.743,877.876C258.983,865.031 247.367,851.189 236.888,836.51L238.272,834.773L239.747,833.775C239.747,833.775 242.178,831.775 243.03,830.104C243.882,828.433 246.402,827.537 246.402,827.537L247.682,826.247C247.682,826.247 248.898,824.464 249.402,822.704C249.906,820.943 251.743,822.662 251.743,822.662L259.212,817.634C259.212,817.634 261.461,816.192 262.16,814.567C262.858,812.942 263.467,811.648 263.467,811.648L265.784,808.33C265.784,808.33 273.162,803.737 274.961,801.318C276.76,798.899 280.555,798.641 281.535,796.7C282.515,794.76 284.277,793.974 284.277,793.974L284.967,790.831L288.899,790.508L290.588,789.427L291.945,788.573L293.646,786.035L295.259,782.732L297.369,781.439L298.924,779.284C298.924,779.284 299.688,778.567 300.677,776.742C301.667,774.916 304.798,774.466 307.398,773.037C308.528,772.416 308.967,772.229 309.103,772.216L308.942,772.477C308.942,772.477 309.28,772.199 309.103,772.216L310.952,769.23L313.554,763.896L309.876,756.949L306.066,751.098L299.395,738.414L295.711,729.454L295.807,730.825L292.567,723.781L290.403,719.106L288.222,714.283L286.557,710.125L284.044,717.811L285.593,720.53L287.1,722.636L285.568,722.304L283.66,721.758L281.637,721.708L282.508,722.875L283.03,723.597L284.704,724.307L285.24,725.246L286.912,726.64L286.2,727.65L286.286,729.453L286.69,730.454L282.636,727.442L281.306,726.222L279.831,726.586L280.781,727.658L282.213,728.441L280.339,729.588L281.036,731.109L282.253,732.984L281.636,733.881L280.775,735.486L282.211,738.52L279.556,738.528L279.429,740.316L279.891,741.748L278.38,742.076L275.439,741.254L273.809,740.657L274.741,742.743L275.148,743.878L273.262,743.293L273.146,746.282L272.319,746.884L269.86,745.845L270.459,750.86L268.649,750.307L268.255,752.016L268.682,753.362L266.723,754.227L263.644,754.731L264.853,757.17L265.677,759.207L266.062,760.232L266.834,761.781L266.58,762.62L264.448,763.122L263.916,764.397L261.663,764.284L261.125,767.131L260.112,768.572L258.436,768.586L257.926,767.554L257.926,768.591L256.326,768.604L256.732,770.972L256.883,772.36L254.911,772.154L253.782,772.442L254.111,774.703L253.733,776.768L252.856,776.697L251.496,777.32L250.837,778.43L250.188,779.281L243.816,780.34L245.076,783L242.892,785.805L242.492,788.053L240.677,789.46L234.123,790.113L234.643,793.286L233.421,796.203L230.989,797.582L228.556,799.254L228.005,802.535L228.064,805.695L222.095,808.458L219.62,809.678L226.498,817.836L229.8,812.655L233.796,810.615L236.983,807.416L240.341,800.479L243.413,795.239L244.988,794.494L245.216,796.468L244.91,797.728L243.276,797.533L242.732,798.981L242.859,800.048L242.17,800.991L241.541,802.839C241.541,802.839 239.873,802.495 240.142,802.796C240.411,803.096 241.035,804.347 241.035,804.347L241.14,805.447L240.571,806.363L240.522,807.781L238.836,809.771L238.05,809.43L237.296,809.336L236.659,808.945L235.636,811.141C235.636,811.141 235.301,811.414 235.18,811.733C235.06,812.051 235.569,812.833 234.934,811.999C234.298,811.166 233.97,810.802 233.97,810.802L233.132,811.015L232.582,813.067C232.582,813.067 232.923,813.643 233.004,814.196C233.085,814.748 232.75,815.215 232.75,815.215C232.75,815.215 230.631,814.851 230.381,814.981C230.131,815.11 229.782,814.958 229.562,815.144C229.342,815.33 229.129,815.431 229.684,816.312C230.239,817.193 230.131,817.446 230.131,817.446L229.462,818.081L228.767,819.403L229.336,820.128L228.795,822.29L226.93,821.781C212.511,799.248 200.578,774.995 191.101,749.542L198.384,742.934L208.665,735.5L211.751,731.787L218.329,725.423L227.707,720.424L238.343,713.859L242.668,710.845L246.068,706.108L247.305,703.001L251.033,700.951L259.161,697.287L262.862,695.569L268.367,688.749L271.478,686.178L273.104,684.838L270.208,678.613L267.366,670.991L267.254,670.83L264.541,661.408L263.104,656.461L261.672,651.365L260.65,647.004L260.264,647.769L259.262,644.321L257.83,639.226L256.809,634.864L253.17,642.085L254.294,645.006L255.466,647.315L254.002,646.757L252.198,645.93L250.206,645.577L250.891,646.862L251.299,647.653L252.848,648.607L253.236,649.616L254.679,651.245L253.825,652.137L253.638,653.932L253.887,654.983L250.331,651.396L249.2,649.99L247.687,650.129L248.466,651.33L249.764,652.32L247.739,653.172L248.199,654.781L249.12,656.817L248.376,657.612L247.283,659.069L248.248,662.285L245.622,661.894L245.227,663.642L245.469,665.127L243.926,665.225L241.142,663.97L239.62,663.135L240.228,665.337L240.46,666.521L238.683,665.659L238.119,668.597L237.211,669.068L234.937,667.671L234.775,672.719L233.069,671.9L232.422,673.531L232.643,674.925L230.576,675.486L227.457,675.523L228.285,678.116L228.794,680.253L229.021,681.324L229.551,682.972L229.174,683.763L226.991,683.939L226.273,685.119L224.063,684.669L223.103,687.403L221.885,688.676L218.137,688.139L218.183,690.541L218.124,691.936L216.205,691.436L215.046,691.551L215.031,693.836L214.347,695.821L213.491,695.619L212.053,696.03L211.235,697.029L210.465,697.773L204.007,697.862L204.853,700.682L202.272,703.127L201.539,705.289L199.533,706.408L192.955,706.069L192.993,709.284L191.347,711.984L188.735,712.983L186.079,714.27L185.041,717.431L184.624,720.564L181.756,721.398C173.704,693.947 168.326,665.392 165.586,636.331L165.704,636.326L166.267,634.693L167.838,633.878L169.91,632.719L171.375,632.413C171.375,632.413 173.901,631.632 175.097,630.601C176.292,629.571 178.536,629.68 178.536,629.68L179.942,629.084C179.942,629.084 181.456,628.083 182.409,626.87C183.363,625.658 184.241,627.589 184.241,627.589L191.647,626.061C191.647,626.061 193.855,625.657 194.916,624.613C195.977,623.569 196.864,622.754 196.864,622.754L199.722,620.909C199.722,620.909 206.919,619.691 209.089,618.38C211.259,617.069 214.289,618.086 215.669,616.886C217.05,615.686 218.67,615.638 218.67,615.638L220.209,613.406L223.366,614.416L225.024,614.114L226.35,613.883L228.482,612.448L230.789,610.387L232.841,610.055L234.736,608.873C234.736,608.873 235.558,608.558 236.91,607.451C238.262,606.343 240.837,606.996 243.313,606.715C244.389,606.593 244.79,606.588 244.899,606.622L244.69,606.774C244.69,606.774 245.042,606.665 244.899,606.622ZM169.855,510.659C170.389,507.338 170.957,504.021 171.557,500.71L177.296,498.757L185.575,497.167L193.836,496.994L196.87,495.729L202.757,494.304L208.302,495.353L208.264,495.84L207.929,498.012L207.734,499.089L207.602,500.815L206.954,501.405L204.867,500.743L203.756,501.566L201.88,500.314L199.958,502.482L198.35,503.201L195.082,501.288L194.218,503.529L193.636,504.798L192.048,503.611L190.931,503.28L190.055,505.39L188.671,506.969L187.955,506.459L186.468,506.297L185.333,506.912L184.339,507.31L178.326,504.954L178.044,507.883L174.731,509.172L173.236,510.898L170.956,511.176L169.855,510.659ZM164.02,614.335C163.782,609.423 163.618,604.501 163.529,599.572L165.38,600.094L169.409,599.843L176.936,600.575L178.506,599.711L183.248,598.073L191.679,598.937L198.271,598.355L198.143,598.52L197.261,600.287L193.064,599.832L192.923,601.153L191.146,600.635L189.676,601.638C189.676,601.638 188.935,599.857 188.078,602.512C187.22,605.168 186.577,604.73 186.379,606.227C186.181,607.725 185.561,607.578 185.561,607.578C185.561,607.578 184.648,606.785 183.506,608.171C182.363,609.558 179.493,604.186 176.92,607.673C174.348,611.16 172.617,611.092 172.617,611.092L166.134,612.423L164.02,614.335ZM214.716,595.3L215.621,595.017L216.2,595.086L216.295,595.379C215.913,595.156 215.257,595.472 214.716,595.3ZM247.73,792.338L248.934,791.148L249.12,791.016L249.677,791.619L248.981,792.101L247.823,792.383L247.73,792.338ZM280.31,757.605L280.595,757.141L282.277,755.994L282.364,760.225C282.364,760.225 281.734,759.908 280.31,757.605ZM245,794.488L246.063,793.985L246.616,793.438L246.794,793.524L247.796,794.725L249.478,796.137L247.007,795.985L245.525,795.034L245,794.488ZM262.899,777.402L265.124,775.831L270.183,770.568L274.911,766.378L279.876,758.31C280.463,759.86 281.126,761.486 281.126,761.486L280.706,767.259L281.272,772.278L279.009,771.911C279.009,771.911 278.131,772.42 274.739,770.774C271.348,769.128 277.695,777.964 277.695,777.964L269.299,782.322L265.886,781.866L267.492,786.772L267.199,786.715L262.899,777.402ZM238.433,818.506L238.873,818.016L238.885,818.436L238.433,818.506ZM254.839,804.158L254.936,804.044L254.939,804.203L254.839,804.158ZM184.09,729.086L185.296,727.706L189.553,726.289L193.184,723.605L196.798,718.34L196.834,721.424L195.188,724.124L192.577,725.122L189.92,726.41L188.882,729.571L188.466,732.704L185.522,733.559C185.036,732.072 184.559,730.58 184.09,729.086ZM196.885,718.213L197.546,717.251L201.371,712.533L204.178,711.69L207.443,709.317L214.188,705.897L215.049,704.325L218.172,700.399L225.75,696.605L231.542,692.162L232.442,691.58L232.635,692.393L232.862,693.463L232.945,693.722L232.86,694.04L232.041,695.981L230.832,696.078L230.115,697.259L227.904,696.809L226.944,699.543L225.726,700.816L221.978,700.279L222.024,702.68L221.965,704.075L220.047,703.575L218.887,703.691L218.873,705.976L218.188,707.96L217.332,707.758L215.894,708.17L215.076,709.169L214.306,709.913L207.848,710.002L208.694,712.821L206.113,715.266L205.381,717.429L203.375,718.547L196.885,718.213Z" style="fill:rgb(91,87,87);"/>
    </g>
</svg>
