<?xml version="1.0" encoding="UTF-8" standalone="no"?>
<!DOCTYPE svg PUBLIC "-//W3C//DTD SVG 1.1//EN" "http://www.w3.org/Graphics/SVG/1.1/DTD/svg11.dtd">
<svg width="100%" height="100%" viewBox="0 0 1920 184" version="1.1" xmlns="http://www.w3.org/2000/svg" xmlns:xlink="http://www.w3.org/1999/xlink" xml:space="preserve" xmlns:serif="http://www.serif.com/" style="fill-rule:evenodd;clip-rule:evenodd;stroke-linejoin:round;stroke-miterlimit:2;">
    <g transform="matrix(1,0,0,1,0,1.58868)">
        <g id="Text" transform="matrix(0.947262,0,0,0.947262,-11430.6,-6873.57)">
            <g transform="matrix(1,0,0,1,19.3081,0)">
                <path d="M12096.6,7444.74L12047.7,7257.78L12087.5,7257.78L12119.5,7403.26L12157.2,7257.78L12198.4,7257.78L12235.1,7403.21L12267,7257.78L12307.3,7257.78L12257.1,7444.74L12212.5,7444.74L12177.2,7310.41L12140.9,7444.74L12096.6,7444.74Z" style="fill:url(#_Linear1);"/>
            </g>
            <g transform="matrix(1,0,0,1,19.3081,0)">
                <rect x="12338.6" y="7257.78" width="37.393" height="186.965" style="fill:url(#_Linear2);"/>
            </g>
            <g transform="matrix(1,0,0,1,19.3081,0)">
                <path d="M12414.4,7444.74L12414.4,7257.78L12451.8,7257.78L12451.8,7415.63L12533.6,7415.63L12533.6,7444.74L12414.4,7444.74Z" style="fill:url(#_Linear3);"/>
            </g>
            <g transform="matrix(1,0,0,1,19.3081,0)">
                <path d="M12567,7444.74L12567,7257.78L12632.7,7257.78C12654.6,7257.78 12672.6,7261.65 12686.7,7269.4C12700.9,7277.14 12711.4,7288 12718.3,7301.98C12725.1,7315.96 12728.5,7332.39 12728.5,7351.26C12728.5,7369.96 12725.1,7386.34 12718.3,7400.4C12711.4,7414.47 12700.9,7425.38 12686.7,7433.12C12672.6,7440.87 12654.6,7444.74 12632.7,7444.74L12567,7444.74ZM12604.3,7412.69L12630.5,7412.69C12645.7,7412.69 12657.5,7410.24 12666.2,7405.35C12674.8,7400.45 12681,7393.42 12684.7,7384.25C12688.5,7375.08 12690.3,7364.08 12690.3,7351.26C12690.3,7338.44 12688.5,7327.4 12684.7,7318.14C12681,7308.88 12674.8,7301.8 12666.2,7296.91C12657.5,7292.01 12645.7,7289.56 12630.5,7289.56L12604.3,7289.56L12604.3,7412.69Z" style="fill:url(#_Linear4);"/>
            </g>
            <g transform="matrix(1,0,0,1,23.1382,0)">
                <path d="M12858.6,7444.74L12858.6,7257.78L12936.3,7257.78C12949.3,7257.78 12960.3,7259.78 12969.2,7263.79C12978.1,7267.79 12984.9,7273.4 12989.5,7280.61C12994.1,7287.82 12996.4,7296.24 12996.4,7305.85C12996.4,7315.29 12994.4,7323.22 12990.3,7329.62C12986.2,7336.04 12980.8,7340.93 12974.1,7344.32C12971.2,7345.8 12968.2,7347.03 12965,7347.99C12964.9,7348.01 12964.7,7348.4 12964.7,7348.41C12970,7349.44 12974.8,7351.37 12979.2,7354.2C12985.9,7358.47 12991.1,7364.08 12995,7371.03C12998.8,7377.97 13000.7,7385.54 13000.7,7393.73C13000.7,7403.7 12998.3,7412.56 12993.5,7420.3C12988.7,7428.05 12981.7,7434.06 12972.5,7438.33C12963.4,7442.61 12952.2,7444.74 12939,7444.74L12858.6,7444.74ZM12896,7414.29L12933.1,7414.29C12942.6,7414.29 12949.9,7412.16 12955,7407.88C12960.2,7403.61 12962.8,7397.38 12962.8,7389.19C12962.8,7381.17 12960.1,7374.85 12954.8,7370.22C12949.4,7365.59 12942,7363.28 12932.6,7363.28L12896,7363.28L12896,7414.29ZM12896,7335.5L12930.2,7335.5C12939.3,7335.5 12946.2,7333.41 12951,7329.23C12955.8,7325.04 12958.2,7319.12 12958.2,7311.46C12958.2,7303.98 12955.9,7298.15 12951.2,7293.97C12946.4,7289.78 12939.4,7287.69 12929.9,7287.69L12896,7287.69L12896,7335.5Z" style="fill:url(#_Linear5);"/>
            </g>
            <g transform="matrix(0.47985,0,0,0.47985,12785.7,7021.09)">
                <path d="M503.013,882.838L613.901,578.439C619.052,571.143 675.799,505.528 677.178,504.465C679.2,502.906 679.528,501.42 681.371,499.401C682.579,498.076 685.182,498.37 686.317,497.708C686.664,497.506 687.764,496.325 688.174,495.197C688.473,494.376 688.091,493.511 688.331,493.428C688.708,493.299 689.104,493.251 689.503,493.251C690.429,493.251 691.371,493.509 692.125,493.608C693.318,493.766 694.39,494.203 695.307,494.769C696.293,495.378 697.098,496.136 697.678,496.853L733.647,566.929C737.372,575.418 740.124,579.676 744.889,581.851C751.602,584.572 763.187,591.901 763.187,591.901L875.578,881.968C875.054,882.638 873.907,882.951 872.076,882.873L793.544,882.866L763.301,795.496L615.069,795.496L584.832,882.846L503.013,882.838ZM666.535,648.526L666.488,648.647L659.42,678.099L693.754,702.895C692.653,705.02 691.567,706.391 691.399,706.599C692.217,705.913 705.609,718.216 707.884,720.687C709.962,722.945 712.19,724.642 712.546,726.769L718.909,725.12L745.816,738.876L726.717,714.037L726.328,707.01L719.888,699.593L716.105,686.771L713.737,678.726L708.445,673.774L704.108,654.224L694.919,630.374C694.919,630.374 684.738,617.157 684.867,615.595C685.301,610.366 681.67,602.812 681.67,602.812L678.826,597.299L680.159,578.412L674.78,592.634L675.101,602.807L669.155,613.459L670.648,634.988C670.665,636.078 670.631,637.103 670.55,638.068L666.749,647.969C666.613,648.123 666.474,648.272 666.332,648.418L666.535,648.526Z" style="fill:url(#_Linear6);"/>
            </g>
            <path d="M13224.8,7444.74L13224.8,7257.78L13262.2,7257.78L13262.2,7415.63L13343.9,7415.63L13343.9,7444.74L13224.8,7444.74Z" style="fill:url(#_Linear7);"/>
            <path d="M13419.1,7402.81L13404.6,7444.74L13365.3,7444.74L13433.4,7257.78L13475.9,7257.78L13544.2,7444.74L13504.7,7444.74L13490.2,7402.81L13419.1,7402.81ZM13480.1,7373.7L13454.6,7300.07L13429.1,7373.7L13480.1,7373.7Z" style="fill:url(#_Linear8);"/>
            <path d="M13570.7,7444.74L13570.7,7257.78L13608.1,7257.78L13692.7,7384.65L13692.7,7257.78L13730.1,7257.78L13730.1,7444.74L13692.7,7444.74L13608.1,7318.41L13608.1,7444.74L13570.7,7444.74Z" style="fill:url(#_Linear9);"/>
            <path d="M13854.6,7447.95C13835.7,7447.95 13819.5,7443.9 13805.9,7435.8C13792.2,7427.69 13781.8,7416.39 13774.5,7401.87C13767.2,7387.36 13763.5,7370.58 13763.5,7351.53C13763.5,7332.47 13767.2,7315.65 13774.5,7301.05C13781.8,7286.44 13792.2,7275.05 13805.9,7266.86C13819.5,7258.67 13835.7,7254.57 13854.6,7254.57C13877.4,7254.57 13896.1,7260.27 13910.7,7271.67C13925.3,7283.06 13934.3,7299.09 13937.7,7319.74L13896.5,7319.74C13894.4,7309.77 13889.7,7302.07 13882.5,7296.64C13875.3,7291.21 13865.8,7288.49 13854.1,7288.49C13843,7288.49 13833.6,7291.03 13825.8,7296.11C13817.9,7301.18 13811.9,7308.44 13807.7,7317.87C13803.5,7327.31 13801.5,7338.53 13801.5,7351.53C13801.5,7364.53 13803.5,7375.7 13807.7,7385.05C13811.9,7394.4 13817.9,7401.61 13825.8,7406.68C13833.6,7411.76 13843,7414.29 13854.1,7414.29C13865.8,7414.29 13875.3,7411.76 13882.4,7406.68C13889.5,7401.61 13894.1,7394.35 13896.3,7384.91L13937.4,7384.91C13934,7404.68 13925.1,7420.13 13910.6,7431.25C13896.1,7442.38 13877.4,7447.95 13854.6,7447.95Z" style="fill:url(#_Linear10);"/>
            <path d="M13970.3,7444.74L13970.3,7257.78L14093.9,7257.78L14093.9,7287.96L14007.7,7287.96L14007.7,7335.23L14085.9,7335.23L14085.9,7364.35L14007.7,7364.35L14007.7,7414.56L14093.9,7414.56L14093.9,7444.74L13970.3,7444.74Z" style="fill:url(#_Linear11);"/>
        </g>
    </g>
    <defs>
        <linearGradient id="_Linear1" x1="0" y1="0" x2="1" y2="0" gradientUnits="userSpaceOnUse" gradientTransform="matrix(2026.9,167.805,-167.805,2026.9,12047.7,7254.57)"><stop offset="0" style="stop-color:rgb(53,53,53);stop-opacity:1"/><stop offset="1" style="stop-color:rgb(76,68,60);stop-opacity:1"/></linearGradient>
        <linearGradient id="_Linear2" x1="0" y1="0" x2="1" y2="0" gradientUnits="userSpaceOnUse" gradientTransform="matrix(2026.9,167.805,-167.805,2026.9,12047.7,7254.57)"><stop offset="0" style="stop-color:rgb(53,53,53);stop-opacity:1"/><stop offset="1" style="stop-color:rgb(76,68,60);stop-opacity:1"/></linearGradient>
        <linearGradient id="_Linear3" x1="0" y1="0" x2="1" y2="0" gradientUnits="userSpaceOnUse" gradientTransform="matrix(2026.9,167.805,-167.805,2026.9,12047.7,7254.57)"><stop offset="0" style="stop-color:rgb(53,53,53);stop-opacity:1"/><stop offset="1" style="stop-color:rgb(76,68,60);stop-opacity:1"/></linearGradient>
        <linearGradient id="_Linear4" x1="0" y1="0" x2="1" y2="0" gradientUnits="userSpaceOnUse" gradientTransform="matrix(2026.9,167.805,-167.805,2026.9,12047.7,7254.57)"><stop offset="0" style="stop-color:rgb(53,53,53);stop-opacity:1"/><stop offset="1" style="stop-color:rgb(76,68,60);stop-opacity:1"/></linearGradient>
        <linearGradient id="_Linear5" x1="0" y1="0" x2="1" y2="0" gradientUnits="userSpaceOnUse" gradientTransform="matrix(2026.9,167.805,-167.805,2026.9,12043.9,7254.57)"><stop offset="0" style="stop-color:rgb(53,53,53);stop-opacity:1"/><stop offset="1" style="stop-color:rgb(76,68,60);stop-opacity:1"/></linearGradient>
        <linearGradient id="_Linear6" x1="0" y1="0" x2="1" y2="0" gradientUnits="userSpaceOnUse" gradientTransform="matrix(4224.02,349.703,-349.703,4224.02,-1497.74,486.572)"><stop offset="0" style="stop-color:rgb(53,53,53);stop-opacity:1"/><stop offset="1" style="stop-color:rgb(76,68,60);stop-opacity:1"/></linearGradient>
        <linearGradient id="_Linear7" x1="0" y1="0" x2="1" y2="0" gradientUnits="userSpaceOnUse" gradientTransform="matrix(2026.9,167.805,-167.805,2026.9,12067,7254.57)"><stop offset="0" style="stop-color:rgb(53,53,53);stop-opacity:1"/><stop offset="1" style="stop-color:rgb(76,68,60);stop-opacity:1"/></linearGradient>
        <linearGradient id="_Linear8" x1="0" y1="0" x2="1" y2="0" gradientUnits="userSpaceOnUse" gradientTransform="matrix(2026.9,167.805,-167.805,2026.9,12067,7254.57)"><stop offset="0" style="stop-color:rgb(53,53,53);stop-opacity:1"/><stop offset="1" style="stop-color:rgb(76,68,60);stop-opacity:1"/></linearGradient>
        <linearGradient id="_Linear9" x1="0" y1="0" x2="1" y2="0" gradientUnits="userSpaceOnUse" gradientTransform="matrix(2026.9,167.805,-167.805,2026.9,12067,7254.57)"><stop offset="0" style="stop-color:rgb(53,53,53);stop-opacity:1"/><stop offset="1" style="stop-color:rgb(76,68,60);stop-opacity:1"/></linearGradient>
        <linearGradient id="_Linear10" x1="0" y1="0" x2="1" y2="0" gradientUnits="userSpaceOnUse" gradientTransform="matrix(2026.9,167.805,-167.805,2026.9,12067,7254.57)"><stop offset="0" style="stop-color:rgb(53,53,53);stop-opacity:1"/><stop offset="1" style="stop-color:rgb(76,68,60);stop-opacity:1"/></linearGradient>
        <linearGradient id="_Linear11" x1="0" y1="0" x2="1" y2="0" gradientUnits="userSpaceOnUse" gradientTransform="matrix(2026.9,167.805,-167.805,2026.9,12067,7254.57)"><stop offset="0" style="stop-color:rgb(53,53,53);stop-opacity:1"/><stop offset="1" style="stop-color:rgb(76,68,60);stop-opacity:1"/></linearGradient>
    </defs>
</svg>
